<svg xmlns="http://www.w3.org/2000/svg" width="1024" height="1024"><defs><clipPath id="a"><path d="M62 310h31v31H62zM62 403h31v31H62zM62 465h31v31H62zM62 496h31v31H62zM62 527h31v31H62zM62 589h31v31H62zM62 620h31v31H62zM62 651h31v31H62zM93 310h31v31H93zM93 496h31v31H93zM93 527h31v31H93zM93 558h31v31H93zM93 589h31v31H93zM93 651h31v31H93zM124 372h31v31h-31zM124 403h31v31h-31zM124 434h31v31h-31zM124 465h31v31h-31zM124 496h31v31h-31zM124 558h31v31h-31zM124 620h31v31h-31zM124 651h31v31h-31zM124 682h31v31h-31zM155 341h31v31h-31zM155 558h31v31h-31zM155 589h31v31h-31zM155 651h31v31h-31zM155 682h31v31h-31zM186 341h31v31h-31zM186 372h31v31h-31zM186 403h31v31h-31zM186 465h31v31h-31zM186 527h31v31h-31zM186 651h31v31h-31zM186 682h31v31h-31zM217 341h31v31h-31zM217 372h31v31h-31zM217 403h31v31h-31zM217 434h31v31h-31zM217 465h31v31h-31zM217 496h31v31h-31zM217 620h31v31h-31zM248 310h31v31h-31zM248 372h31v31h-31zM248 434h31v31h-31zM248 496h31v31h-31zM248 558h31v31h-31zM248 620h31v31h-31zM248 682h31v31h-31zM279 341h31v31h-31zM279 372h31v31h-31zM279 434h31v31h-31zM279 465h31v31h-31zM279 527h31v31h-31zM279 558h31v31h-31zM279 651h31v31h-31zM310 93h31v31h-31zM310 248h31v31h-31zM310 279h31v31h-31zM310 310h31v31h-31zM310 372h31v31h-31zM310 403h31v31h-31zM310 434h31v31h-31zM310 465h31v31h-31zM310 496h31v31h-31zM310 620h31v31h-31zM310 713h31v31h-31zM310 899h31v31h-31zM310 930h31v31h-31zM341 93h31v31h-31zM341 341h31v31h-31zM341 465h31v31h-31zM341 589h31v31h-31zM341 682h31v31h-31zM341 713h31v31h-31zM341 775h31v31h-31zM341 806h31v31h-31zM341 868h31v31h-31zM341 899h31v31h-31zM372 186h31v31h-31zM372 217h31v31h-31zM372 248h31v31h-31zM372 279h31v31h-31zM372 310h31v31h-31zM372 372h31v31h-31zM372 403h31v31h-31zM372 465h31v31h-31zM372 496h31v31h-31zM372 527h31v31h-31zM372 620h31v31h-31zM372 713h31v31h-31zM372 744h31v31h-31zM372 775h31v31h-31zM372 806h31v31h-31zM372 837h31v31h-31zM372 868h31v31h-31zM403 93h31v31h-31zM403 186h31v31h-31zM403 217h31v31h-31zM403 434h31v31h-31zM403 465h31v31h-31zM403 651h31v31h-31zM403 744h31v31h-31zM403 806h31v31h-31zM403 837h31v31h-31zM434 93h31v31h-31zM434 155h31v31h-31zM434 217h31v31h-31zM434 248h31v31h-31zM434 310h31v31h-31zM434 341h31v31h-31zM434 372h31v31h-31zM434 465h31v31h-31zM434 527h31v31h-31zM434 620h31v31h-31zM434 713h31v31h-31zM434 744h31v31h-31zM434 837h31v31h-31zM434 868h31v31h-31zM434 899h31v31h-31zM465 62h31v31h-31zM465 93h31v31h-31zM465 217h31v31h-31zM465 341h31v31h-31zM465 403h31v31h-31zM465 496h31v31h-31zM465 527h31v31h-31zM465 589h31v31h-31zM465 620h31v31h-31zM465 651h31v31h-31zM465 682h31v31h-31zM465 744h31v31h-31zM465 806h31v31h-31zM465 837h31v31h-31zM465 899h31v31h-31zM465 930h31v31h-31zM496 62h31v31h-31zM496 93h31v31h-31zM496 155h31v31h-31zM496 186h31v31h-31zM496 248h31v31h-31zM496 279h31v31h-31zM496 341h31v31h-31zM496 434h31v31h-31zM496 496h31v31h-31zM496 589h31v31h-31zM496 682h31v31h-31zM496 713h31v31h-31zM496 775h31v31h-31zM527 62h31v31h-31zM527 124h31v31h-31zM527 155h31v31h-31zM527 279h31v31h-31zM527 310h31v31h-31zM527 341h31v31h-31zM527 372h31v31h-31zM527 465h31v31h-31zM527 496h31v31h-31zM527 527h31v31h-31zM527 589h31v31h-31zM527 620h31v31h-31zM527 682h31v31h-31zM527 744h31v31h-31zM527 806h31v31h-31zM527 837h31v31h-31zM527 868h31v31h-31zM527 899h31v31h-31zM527 930h31v31h-31zM558 155h31v31h-31zM558 248h31v31h-31zM558 403h31v31h-31zM558 496h31v31h-31zM558 527h31v31h-31zM558 558h31v31h-31zM558 682h31v31h-31zM558 775h31v31h-31zM558 806h31v31h-31zM558 837h31v31h-31zM558 868h31v31h-31zM558 899h31v31h-31zM589 62h31v31h-31zM589 93h31v31h-31zM589 155h31v31h-31zM589 372h31v31h-31zM589 403h31v31h-31zM589 434h31v31h-31zM589 465h31v31h-31zM589 496h31v31h-31zM589 589h31v31h-31zM589 620h31v31h-31zM589 682h31v31h-31zM589 713h31v31h-31zM589 744h31v31h-31zM589 775h31v31h-31zM589 806h31v31h-31zM589 930h31v31h-31zM620 62h31v31h-31zM620 93h31v31h-31zM620 155h31v31h-31zM620 186h31v31h-31zM620 217h31v31h-31zM620 248h31v31h-31zM620 279h31v31h-31zM620 310h31v31h-31zM620 341h31v31h-31zM620 434h31v31h-31zM620 527h31v31h-31zM620 651h31v31h-31zM620 682h31v31h-31zM620 775h31v31h-31zM620 806h31v31h-31zM620 930h31v31h-31zM651 62h31v31h-31zM651 124h31v31h-31zM651 217h31v31h-31zM651 341h31v31h-31zM651 434h31v31h-31zM651 465h31v31h-31zM651 496h31v31h-31zM651 620h31v31h-31zM651 713h31v31h-31zM651 744h31v31h-31zM651 775h31v31h-31zM651 806h31v31h-31zM651 837h31v31h-31zM651 930h31v31h-31zM682 62h31v31h-31zM682 155h31v31h-31zM682 186h31v31h-31zM682 248h31v31h-31zM682 341h31v31h-31zM682 434h31v31h-31zM682 496h31v31h-31zM682 527h31v31h-31zM682 589h31v31h-31zM682 682h31v31h-31zM682 713h31v31h-31zM682 744h31v31h-31zM682 775h31v31h-31zM682 806h31v31h-31zM682 899h31v31h-31zM682 930h31v31h-31zM713 310h31v31h-31zM713 372h31v31h-31zM713 403h31v31h-31zM713 527h31v31h-31zM713 558h31v31h-31zM713 620h31v31h-31zM713 651h31v31h-31zM713 682h31v31h-31zM713 806h31v31h-31zM713 837h31v31h-31zM713 868h31v31h-31zM713 899h31v31h-31zM744 310h31v31h-31zM744 341h31v31h-31zM744 372h31v31h-31zM744 465h31v31h-31zM744 527h31v31h-31zM744 558h31v31h-31zM744 620h31v31h-31zM744 651h31v31h-31zM744 682h31v31h-31zM744 744h31v31h-31zM744 806h31v31h-31zM744 899h31v31h-31zM775 341h31v31h-31zM775 372h31v31h-31zM775 403h31v31h-31zM775 434h31v31h-31zM775 465h31v31h-31zM775 496h31v31h-31zM775 527h31v31h-31zM775 558h31v31h-31zM775 651h31v31h-31zM775 682h31v31h-31zM775 806h31v31h-31zM775 837h31v31h-31zM775 899h31v31h-31zM775 930h31v31h-31zM806 341h31v31h-31zM806 496h31v31h-31zM806 558h31v31h-31zM806 589h31v31h-31zM806 620h31v31h-31zM806 651h31v31h-31zM806 682h31v31h-31zM806 713h31v31h-31zM806 744h31v31h-31zM806 775h31v31h-31zM806 806h31v31h-31zM837 372h31v31h-31zM837 465h31v31h-31zM837 496h31v31h-31zM837 558h31v31h-31zM837 589h31v31h-31zM837 651h31v31h-31zM837 682h31v31h-31zM837 775h31v31h-31zM837 837h31v31h-31zM837 868h31v31h-31zM837 899h31v31h-31zM868 372h31v31h-31zM868 403h31v31h-31zM868 465h31v31h-31zM868 496h31v31h-31zM868 620h31v31h-31zM868 651h31v31h-31zM868 682h31v31h-31zM868 713h31v31h-31zM868 744h31v31h-31zM868 775h31v31h-31zM868 806h31v31h-31zM868 837h31v31h-31zM868 899h31v31h-31zM899 310h31v31h-31zM899 527h31v31h-31zM899 651h31v31h-31zM899 713h31v31h-31zM899 744h31v31h-31zM899 806h31v31h-31zM899 837h31v31h-31zM899 868h31v31h-31zM899 930h31v31h-31zM930 403h31v31h-31zM930 465h31v31h-31zM930 589h31v31h-31zM930 713h31v31h-31zM930 806h31v31h-31zM930 837h31v31h-31z"/></clipPath><clipPath id="b"><path d="M62 62h31v31H62zM62 93h31v31H62zM62 124h31v31H62zM62 155h31v31H62zM62 186h31v31H62zM62 217h31v31H62zM62 248h31v31H62zM93 62h31v31H93zM93 248h31v31H93zM124 62h31v31h-31zM124 248h31v31h-31zM155 62h31v31h-31zM155 248h31v31h-31zM186 62h31v31h-31zM186 248h31v31h-31zM217 62h31v31h-31zM217 248h31v31h-31zM248 62h31v31h-31zM248 93h31v31h-31zM248 124h31v31h-31zM248 155h31v31h-31zM248 186h31v31h-31zM248 217h31v31h-31zM248 248h31v31h-31z"/></clipPath><clipPath id="c"><path d="M124 124h31v31h-31zM124 155h31v31h-31zM124 186h31v31h-31zM155 124h31v31h-31zM155 155h31v31h-31zM155 186h31v31h-31zM186 124h31v31h-31zM186 155h31v31h-31zM186 186h31v31h-31z"/></clipPath><clipPath id="d"><path d="M744 62h31v31h-31zM744 93h31v31h-31zM744 124h31v31h-31zM744 155h31v31h-31zM744 186h31v31h-31zM744 217h31v31h-31zM744 248h31v31h-31zM775 62h31v31h-31zM775 248h31v31h-31zM806 62h31v31h-31zM806 248h31v31h-31zM837 62h31v31h-31zM837 248h31v31h-31zM868 62h31v31h-31zM868 248h31v31h-31zM899 62h31v31h-31zM899 248h31v31h-31zM930 62h31v31h-31zM930 93h31v31h-31zM930 124h31v31h-31zM930 155h31v31h-31zM930 186h31v31h-31zM930 217h31v31h-31zM930 248h31v31h-31z"/></clipPath><clipPath id="e"><path d="M806 124h31v31h-31zM806 155h31v31h-31zM806 186h31v31h-31zM837 124h31v31h-31zM837 155h31v31h-31zM837 186h31v31h-31zM868 124h31v31h-31zM868 155h31v31h-31zM868 186h31v31h-31z"/></clipPath><clipPath id="f"><path d="M62 744h31v31H62zM62 775h31v31H62zM62 806h31v31H62zM62 837h31v31H62zM62 868h31v31H62zM62 899h31v31H62zM62 930h31v31H62zM93 744h31v31H93zM93 930h31v31H93zM124 744h31v31h-31zM124 930h31v31h-31zM155 744h31v31h-31zM155 930h31v31h-31zM186 744h31v31h-31zM186 930h31v31h-31zM217 744h31v31h-31zM217 930h31v31h-31zM248 744h31v31h-31zM248 775h31v31h-31zM248 806h31v31h-31zM248 837h31v31h-31zM248 868h31v31h-31zM248 899h31v31h-31zM248 930h31v31h-31z"/></clipPath><clipPath id="g"><path d="M124 806h31v31h-31zM124 837h31v31h-31zM124 868h31v31h-31zM155 806h31v31h-31zM155 837h31v31h-31zM155 868h31v31h-31zM186 806h31v31h-31zM186 837h31v31h-31zM186 868h31v31h-31z"/></clipPath></defs><path fill="#fff" d="M0 0h1024v1024H0z"/><path d="M62 62h899v899H62z" clip-path="url('#a')"/><path d="M62 62h217v217H62z" clip-path="url('#b')"/><path d="M124 124h93v93h-93z" clip-path="url('#c')"/><path d="M744 62h217v217H744z" clip-path="url('#d')"/><path d="M806 124h93v93h-93z" clip-path="url('#e')"/><path d="M62 744h217v217H62z" clip-path="url('#f')"/><path d="M124 806h93v93h-93z" clip-path="url('#g')"/></svg>